<mxfile host="app.diagrams.net" modified="2022-06-01T05:10:47.178Z" agent="5.0 (Windows NT 10.0; Win64; x64) AppleWebKit/537.36 (KHTML, like Gecko) Chrome/101.0.4951.64 Safari/537.36 Edg/101.0.1210.53" etag="7QvQetBScrdi_Qw5DJPD" version="18.2.0" type="github">
  <diagram name="Page-1" id="822b0af5-4adb-64df-f703-e8dfc1f81529">
    <mxGraphModel dx="1209" dy="1623" grid="1" gridSize="10" guides="1" tooltips="1" connect="1" arrows="1" fold="1" page="1" pageScale="1" pageWidth="1100" pageHeight="850" background="none" math="0" shadow="0">
      <root>
        <mxCell id="0" />
        <mxCell id="1" parent="0" />
        <mxCell id="RFylFYcMgzvB_SiACx0m-14" value="&lt;span style=&quot;font-size: 16px;&quot;&gt;1. LAUNCE RCE N DAY AGAINS Client&lt;/span&gt;" style="edgeStyle=orthogonalEdgeStyle;rounded=0;orthogonalLoop=1;jettySize=auto;html=1;entryX=0.513;entryY=0.046;entryDx=0;entryDy=0;entryPerimeter=0;" parent="1" source="7d933b09d9755ecc-9" target="PxHm3q9xVwT1R9bie0Qp-13" edge="1">
          <mxGeometry relative="1" as="geometry">
            <Array as="points">
              <mxPoint x="660" y="283" />
              <mxPoint x="660" y="180" />
              <mxPoint x="883" y="180" />
              <mxPoint x="883" y="194" />
            </Array>
          </mxGeometry>
        </mxCell>
        <mxCell id="7d933b09d9755ecc-9" value="RED OPERATOR&lt;br&gt;" style="verticalLabelPosition=bottom;aspect=fixed;html=1;verticalAlign=top;strokeColor=none;shape=mxgraph.citrix.tower_server;rounded=0;shadow=0;comic=0;fontFamily=Verdana;" parent="1" vertex="1">
          <mxGeometry x="730" y="240" width="65" height="85" as="geometry" />
        </mxCell>
        <mxCell id="X1wk0u_74s1iWXVyHImm-8" value="EVIL WINRM TO CLIENT" style="edgeStyle=orthogonalEdgeStyle;rounded=0;orthogonalLoop=1;jettySize=auto;html=1;entryX=0.579;entryY=0.95;entryDx=0;entryDy=0;entryPerimeter=0;fontSize=16;" edge="1" parent="1" source="7d933b09d9755ecc-34" target="X1wk0u_74s1iWXVyHImm-4">
          <mxGeometry x="0.3771" relative="1" as="geometry">
            <Array as="points">
              <mxPoint x="603" y="490" />
              <mxPoint x="540" y="490" />
              <mxPoint x="540" y="650" />
              <mxPoint x="714" y="650" />
            </Array>
            <mxPoint as="offset" />
          </mxGeometry>
        </mxCell>
        <mxCell id="7d933b09d9755ecc-34" value="EVIN WINRM" style="verticalLabelPosition=bottom;aspect=fixed;html=1;verticalAlign=top;strokeColor=none;shape=mxgraph.citrix.tower_server;rounded=0;shadow=0;comic=0;fontFamily=Verdana;" parent="1" vertex="1">
          <mxGeometry x="650" y="410" width="65" height="85" as="geometry" />
        </mxCell>
        <mxCell id="7d933b09d9755ecc-38" value="SERVER TARGETS" style="verticalLabelPosition=bottom;aspect=fixed;html=1;verticalAlign=top;strokeColor=none;shape=mxgraph.citrix.tower_server;rounded=0;shadow=0;comic=0;fontFamily=Verdana;" parent="1" vertex="1">
          <mxGeometry x="1990" y="220" width="65" height="85" as="geometry" />
        </mxCell>
        <mxCell id="PxHm3q9xVwT1R9bie0Qp-8" value="Domain Controller/DNS" style="verticalLabelPosition=bottom;aspect=fixed;html=1;verticalAlign=top;strokeColor=none;shape=mxgraph.citrix.tower_server;rounded=0;shadow=0;comic=0;fontFamily=Verdana;" parent="1" vertex="1">
          <mxGeometry x="1640" y="530" width="65" height="85" as="geometry" />
        </mxCell>
        <mxCell id="X1wk0u_74s1iWXVyHImm-5" style="edgeStyle=orthogonalEdgeStyle;rounded=0;orthogonalLoop=1;jettySize=auto;html=1;fontStyle=1;entryX=1.033;entryY=0.717;entryDx=0;entryDy=0;entryPerimeter=0;" edge="1" parent="1" source="PxHm3q9xVwT1R9bie0Qp-13" target="X1wk0u_74s1iWXVyHImm-4">
          <mxGeometry relative="1" as="geometry">
            <mxPoint x="270" y="500" as="targetPoint" />
            <Array as="points">
              <mxPoint x="1600" y="230" />
              <mxPoint x="1600" y="410" />
              <mxPoint x="820" y="410" />
              <mxPoint x="820" y="474" />
              <mxPoint x="764" y="474" />
            </Array>
          </mxGeometry>
        </mxCell>
        <mxCell id="X1wk0u_74s1iWXVyHImm-6" value="&lt;span style=&quot;font-size: 16px;&quot;&gt;2. DROP REVERSE SSH TUNNEL PAYLOAD&lt;/span&gt;" style="edgeLabel;html=1;align=center;verticalAlign=middle;resizable=0;points=[];fontSize=16;" vertex="1" connectable="0" parent="X1wk0u_74s1iWXVyHImm-5">
          <mxGeometry x="0.0134" y="-1" relative="1" as="geometry">
            <mxPoint as="offset" />
          </mxGeometry>
        </mxCell>
        <mxCell id="X1wk0u_74s1iWXVyHImm-9" value="ENUMERATE AD" style="edgeStyle=orthogonalEdgeStyle;rounded=0;orthogonalLoop=1;jettySize=auto;html=1;entryX=0.61;entryY=-0.004;entryDx=0;entryDy=0;entryPerimeter=0;fontSize=16;" edge="1" parent="1" source="PxHm3q9xVwT1R9bie0Qp-13" target="PxHm3q9xVwT1R9bie0Qp-8">
          <mxGeometry relative="1" as="geometry" />
        </mxCell>
        <mxCell id="X1wk0u_74s1iWXVyHImm-10" style="edgeStyle=orthogonalEdgeStyle;rounded=0;orthogonalLoop=1;jettySize=auto;html=1;entryX=-0.015;entryY=0.514;entryDx=0;entryDy=0;entryPerimeter=0;fontSize=16;" edge="1" parent="1" source="PxHm3q9xVwT1R9bie0Qp-13" target="7d933b09d9755ecc-38">
          <mxGeometry relative="1" as="geometry" />
        </mxCell>
        <mxCell id="X1wk0u_74s1iWXVyHImm-11" value="LAUNCH RotI Ransomware" style="edgeStyle=orthogonalEdgeStyle;rounded=0;orthogonalLoop=1;jettySize=auto;html=1;entryX=-0.005;entryY=0.506;entryDx=0;entryDy=0;entryPerimeter=0;fontSize=16;" edge="1" parent="1" source="PxHm3q9xVwT1R9bie0Qp-13" target="RFylFYcMgzvB_SiACx0m-3">
          <mxGeometry x="-0.4575" y="70" relative="1" as="geometry">
            <Array as="points">
              <mxPoint x="1800" y="233" />
              <mxPoint x="1800" y="483" />
            </Array>
            <mxPoint as="offset" />
          </mxGeometry>
        </mxCell>
        <mxCell id="X1wk0u_74s1iWXVyHImm-12" style="edgeStyle=orthogonalEdgeStyle;rounded=0;orthogonalLoop=1;jettySize=auto;html=1;fontSize=16;" edge="1" parent="1" source="PxHm3q9xVwT1R9bie0Qp-13" target="X1wk0u_74s1iWXVyHImm-13">
          <mxGeometry relative="1" as="geometry">
            <mxPoint x="1780" y="140" as="targetPoint" />
          </mxGeometry>
        </mxCell>
        <mxCell id="PxHm3q9xVwT1R9bie0Qp-13" value="USER SPACE CLIENT" style="verticalLabelPosition=bottom;aspect=fixed;html=1;verticalAlign=top;strokeColor=none;shape=mxgraph.citrix.tower_server;rounded=0;shadow=0;comic=0;fontFamily=Verdana;" parent="1" vertex="1">
          <mxGeometry x="1667.5" y="190" width="65" height="85" as="geometry" />
        </mxCell>
        <mxCell id="PxHm3q9xVwT1R9bie0Qp-15" value="0.0.0.0: 4443&lt;br&gt;acats-security-center" style="text;html=1;align=center;verticalAlign=middle;resizable=0;points=[];autosize=1;strokeColor=none;fillColor=none;fontSize=18;" parent="1" vertex="1">
          <mxGeometry x="1552.5" y="35" width="180" height="50" as="geometry" />
        </mxCell>
        <mxCell id="PxHm3q9xVwT1R9bie0Qp-16" value="0.0.0.0:31337&lt;br&gt;acats-server-service" style="text;html=1;align=center;verticalAlign=middle;resizable=0;points=[];autosize=1;strokeColor=none;fillColor=none;fontSize=18;" parent="1" vertex="1">
          <mxGeometry x="1552.5" y="85" width="180" height="50" as="geometry" />
        </mxCell>
        <mxCell id="RFylFYcMgzvB_SiACx0m-2" value="RED SPACE" style="endArrow=none;dashed=1;html=1;rounded=0;fillColor=#f8cecc;strokeColor=#b85450;strokeWidth=3;" parent="1" edge="1">
          <mxGeometry x="0.1143" y="35" width="50" height="50" relative="1" as="geometry">
            <mxPoint x="885" y="760" as="sourcePoint" />
            <mxPoint x="885" y="60" as="targetPoint" />
            <mxPoint as="offset" />
          </mxGeometry>
        </mxCell>
        <mxCell id="RFylFYcMgzvB_SiACx0m-3" value="CLIENT TARGETS" style="verticalLabelPosition=bottom;aspect=fixed;html=1;verticalAlign=top;strokeColor=none;shape=mxgraph.citrix.tower_server;rounded=0;shadow=0;comic=0;fontFamily=Verdana;" parent="1" vertex="1">
          <mxGeometry x="1980" y="440" width="65" height="85" as="geometry" />
        </mxCell>
        <mxCell id="RFylFYcMgzvB_SiACx0m-10" value="BLUE SPACE" style="endArrow=none;dashed=1;html=1;rounded=0;fillColor=#dae8fc;strokeColor=#6c8ebf;strokeWidth=3;" parent="1" edge="1">
          <mxGeometry x="0.0286" y="-60" width="50" height="50" relative="1" as="geometry">
            <mxPoint x="1320" y="760" as="sourcePoint" />
            <mxPoint x="1320" y="60" as="targetPoint" />
            <mxPoint as="offset" />
          </mxGeometry>
        </mxCell>
        <mxCell id="RFylFYcMgzvB_SiACx0m-11" value="&lt;b&gt;&lt;u&gt;GRAY SPACE&lt;/u&gt;&lt;/b&gt;" style="text;html=1;align=center;verticalAlign=middle;resizable=0;points=[];autosize=1;strokeColor=none;fillColor=none;" parent="1" vertex="1">
          <mxGeometry x="1070" y="60" width="90" height="20" as="geometry" />
        </mxCell>
        <mxCell id="RFylFYcMgzvB_SiACx0m-12" value="&lt;b&gt;&lt;u&gt;RED SPACE&lt;/u&gt;&lt;/b&gt;" style="text;html=1;align=center;verticalAlign=middle;resizable=0;points=[];autosize=1;strokeColor=none;fillColor=none;" parent="1" vertex="1">
          <mxGeometry x="210" y="60" width="80" height="20" as="geometry" />
        </mxCell>
        <mxCell id="RFylFYcMgzvB_SiACx0m-13" value="&lt;b&gt;&lt;u&gt;BLUE SPACE&lt;/u&gt;&lt;/b&gt;" style="text;html=1;align=center;verticalAlign=middle;resizable=0;points=[];autosize=1;strokeColor=none;fillColor=none;" parent="1" vertex="1">
          <mxGeometry x="1410" y="70" width="90" height="20" as="geometry" />
        </mxCell>
        <mxCell id="X1wk0u_74s1iWXVyHImm-4" value="&lt;b&gt;SSH Listener 443&lt;/b&gt;" style="text;html=1;align=center;verticalAlign=middle;resizable=0;points=[];autosize=1;strokeColor=none;fillColor=none;" vertex="1" parent="1">
          <mxGeometry x="650" y="557.5" width="110" height="20" as="geometry" />
        </mxCell>
        <mxCell id="X1wk0u_74s1iWXVyHImm-13" value="&lt;ol&gt;&lt;li&gt;Priv Esc&lt;/li&gt;&lt;li&gt;Persist&lt;br&gt;&lt;/li&gt;&lt;li&gt;Enumerate Other Clients&lt;/li&gt;&lt;li&gt;WinRM/WMI Lateral&lt;/li&gt;&lt;li&gt;Launch Ransomware&lt;/li&gt;&lt;li&gt;Profit&lt;/li&gt;&lt;/ol&gt;" style="whiteSpace=wrap;html=1;aspect=fixed;fontSize=16;" vertex="1" parent="1">
          <mxGeometry x="1930" y="-50" width="240" height="240" as="geometry" />
        </mxCell>
      </root>
    </mxGraphModel>
  </diagram>
</mxfile>
